<?xml version="1.0" encoding="utf-8"?>
<!-- Generator: Adobe Illustrator 15.0.0, SVG Export Plug-In . SVG Version: 6.00 Build 0)  -->
<!DOCTYPE svg PUBLIC "-//W3C//DTD SVG 1.1//EN" "http://www.w3.org/Graphics/SVG/1.1/DTD/svg11.dtd">
<svg version="1.1" xmlns="http://www.w3.org/2000/svg" xmlns:xlink="http://www.w3.org/1999/xlink" x="0px" y="0px"
	 width="146.667px" height="88.333px" viewBox="0 0 146.667 88.333" enable-background="new 0 0 146.667 88.333"
	 xml:space="preserve">
<g id="Capa_1">
	<g>
		<path fill="#E30613" d="M76.061,46.576c0-16.879,23.165-30.537,51.792-30.537"/>
		<path fill="#E30613" d="M127.852,16.039c0,16.879-23.165,30.537-51.792,30.537"/>
	</g>
	<g>
		<path fill="#FFFFFF" d="M76.061,46.576c0-14.043,25.459-25.407,56.922-25.407"/>
		<path fill="#FFFFFF" d="M132.982,21.169c0,14.043-25.459,25.407-56.922,25.407"/>
	</g>
	<g>
		<path fill="#27348B" d="M76.061,46.576c0-10.127,27.645-18.322,61.808-18.322"/>
		<path fill="#27348B" d="M137.868,28.253c0,10.127-27.645,18.322-61.808,18.322"/>
	</g>
	<g>
		<path fill="#00983A" d="M76.061,46.576c0,16.88,23.165,30.538,51.792,30.538"/>
		<path fill="#00983A" d="M127.852,77.114c0-16.879-23.165-30.538-51.792-30.538"/>
	</g>
	<g>
		<path fill="#FFFFFF" d="M76.061,46.576c0,14.044,25.459,25.408,56.922,25.408"/>
		<path fill="#FFFFFF" d="M132.982,71.984c0-14.044-25.459-25.408-56.922-25.408"/>
	</g>
	<g>
		<path fill="#FFDE00" d="M76.061,46.576c0,10.128,27.645,18.323,61.808,18.323"/>
		<path fill="#FFDE00" d="M137.868,64.899c0-10.128-27.645-18.323-61.808-18.323"/>
	</g>
	<g>
		<path fill="#00983A" d="M76.061,47.045c0-16.879-23.165-30.537-51.792-30.537"/>
		<path fill="#00983A" d="M24.269,16.508c0,16.878,23.165,30.537,51.792,30.537"/>
	</g>
	<g>
		<path fill="#FFFFFF" d="M76.061,47.045c0-14.043-25.459-25.407-56.922-25.407"/>
		<path fill="#FFFFFF" d="M19.139,21.638c0,14.044,25.459,25.407,56.922,25.407"/>
	</g>
	<g>
		<path fill="#FFDE00" d="M76.061,47.045c0-10.127-27.645-18.323-61.808-18.323"/>
		<path fill="#FFDE00" d="M14.253,28.722c0,10.127,27.645,18.323,61.808,18.323"/>
	</g>
	<g>
		<path fill="#E30613" d="M76.061,47.045c0,16.879-23.165,30.538-51.792,30.538"/>
		<path fill="#E30613" d="M24.269,77.583c0-16.879,23.165-30.538,51.792-30.538"/>
	</g>
	<g>
		<path fill="#FFFFFF" d="M76.061,47.045c0,14.043-25.459,25.408-56.922,25.408"/>
		<path fill="#FFFFFF" d="M19.139,72.453c0-14.044,25.459-25.408,56.922-25.408"/>
	</g>
	<g>
		<path fill="#27348B" d="M76.061,47.045c0,10.127-27.645,18.323-61.808,18.323"/>
		<path fill="#27348B" d="M14.253,65.368c0-10.128,27.645-18.323,61.808-18.323"/>
	</g>
</g>
<g id="Capa_2">
	<text transform="matrix(0.6642 0 0 1 64.1445 76.3447)" fill="#E30613" font-family="'ForteMT'" font-size="17.5501">APP</text>
	<text transform="matrix(0.6642 0 0 1 70.7505 28.7227)" fill="#00983A" font-family="'ForteMT'" font-size="17.5501">JL</text>
</g>
</svg>
